<svg width="12" height="10" viewBox="0 0 12 10" fill="none" xmlns="http://www.w3.org/2000/svg">
<path d="M11.6 1C11.44 0.826666 11.24 0.74 11 0.74C10.76 0.74 10.56 0.826666 10.4 1L4.2 7.22L1.6 4.6C1.42667 4.44 1.22 4.36 0.98 4.36C0.74 4.36 0.54 4.44667 0.38 4.62C0.22 4.79333 0.14 5 0.14 5.24C0.14 5.48 0.226667 5.68 0.4 5.84L3.6 9.04C3.76 9.21333 3.96 9.3 4.2 9.3C4.44 9.3 4.64 9.21333 4.8 9.04L11.6 2.24C11.7867 2.08 11.88 1.87333 11.88 1.62C11.88 1.36667 11.7867 1.16 11.6 1Z" fill="#6FC5E0"/>
</svg>
